<?xml version="1.0" encoding="iso-8859-1"?>
<!-- Generator: Adobe Illustrator 16.0.0, SVG Export Plug-In . SVG Version: 6.00 Build 0)  -->
<!DOCTYPE svg PUBLIC "-//W3C//DTD SVG 1.1//EN" "http://www.w3.org/Graphics/SVG/1.1/DTD/svg11.dtd">
<svg version="1.1" id="Capa_1" xmlns="http://www.w3.org/2000/svg" xmlns:xlink="http://www.w3.org/1999/xlink" x="0px" y="0px"
	 width="32px" height="32px" viewBox="0 0 32 32" style="enable-background:new 0 0 32 32;" xml:space="preserve">
<g>
	<path d="M26.494,2.756c-3.541-4.129-9.57-0.909-10.425-0.42C13.322,0.46,9.484-1.193,6.394,1.163
		C4.173,2.854,2.895,5.037,2.592,7.65c-0.456,3.936,1.498,7.757,2.515,8.991c0.516,0.625,0.695,3.668,0.826,5.893
		c0.279,4.729,0.52,8.816,2.939,9.328c0.618,0.135,1.209,0.023,1.711-0.311c1.303-0.869,1.713-3.046,2.187-5.566
		c0.61-3.242,1.17-5.717,2.616-5.615c0.436,0.029,0.62,0.188,0.731,0.322c0.734,0.892,0.416,3.533,0.182,5.466
		c-0.337,2.802-0.629,5.222,1.215,5.76C17.682,31.962,17.885,32,18.119,32c0.372,0,0.817-0.095,1.307-0.39
		c2.832-1.705,5.062-9.062,5.924-13.033c2.254-1.753,3.725-4.316,4.056-7.088C29.657,9.351,29.359,6.101,26.494,2.756z
		 M27.412,11.252c-0.279,2.345-1.574,4.509-3.554,5.938c-0.204,0.146-0.346,0.365-0.396,0.61
		c-1.174,5.691-3.447,11.117-5.071,12.095c-0.072,0.043-0.164,0.09-0.243,0.102c-0.229-0.529,0.003-2.438,0.144-3.602
		c0.321-2.668,0.653-5.428-0.627-6.979c-0.515-0.624-1.251-0.984-2.137-1.048c-0.09-0.008-0.179-0.012-0.266-0.012
		c-3.097,0-3.852,4.017-4.462,7.259c-0.307,1.632-0.728,3.866-1.328,4.269c-0.03,0.021-0.064,0.044-0.183,0.019
		c-0.923-0.193-1.225-5.305-1.354-7.485c-0.216-3.668-0.394-5.972-1.281-7.047c-0.687-0.834-2.455-4.158-2.07-7.485
		C4.821,5.83,5.838,4.106,7.608,2.757c3.913-2.985,10.491,3.876,10.558,3.946c0.381,0.401,1.018,0.419,1.418,0.039
		c0.401-0.38,0.42-1.014,0.039-1.417c-0.09-0.095-0.752-0.787-1.777-1.643c1.604-0.736,5.125-1.955,7.125,0.377
		C26.865,6.271,27.708,8.758,27.412,11.252z M16.342,12.746c0,1.225-0.705,2.218-1.575,2.218c-0.87,0-1.575-0.993-1.575-2.218
		s0.705-2.218,1.575-2.218C15.637,10.528,16.342,11.521,16.342,12.746z M10.179,6.48c0,0.829-0.51,1.5-1.139,1.5
		s-1.139-0.671-1.139-1.5s0.51-1.5,1.139-1.5S10.179,5.651,10.179,6.48z M24.28,12.746c0,0.918-0.524,1.663-1.172,1.663
		c-0.648,0-1.172-0.745-1.172-1.663s0.523-1.663,1.172-1.663C23.755,11.083,24.28,11.828,24.28,12.746z M22.141,7.913
		c0.052-0.744,0.526-1.316,1.062-1.279c0.534,0.037,0.927,0.67,0.875,1.414c-0.052,0.744-0.527,1.317-1.062,1.28
		C22.481,9.29,22.088,8.657,22.141,7.913z M13.215,15.354c-0.035,0.505-0.358,0.895-0.721,0.87
		c-0.363-0.024-0.629-0.456-0.594-0.959c0.035-0.505,0.358-0.895,0.721-0.869C12.984,14.418,13.25,14.849,13.215,15.354z"/>
</g>
<g>
</g>
<g>
</g>
<g>
</g>
<g>
</g>
<g>
</g>
<g>
</g>
<g>
</g>
<g>
</g>
<g>
</g>
<g>
</g>
<g>
</g>
<g>
</g>
<g>
</g>
<g>
</g>
<g>
</g>
</svg>
